<svg width="200" height="246" viewBox="0 0 200 246" fill="none" xmlns="http://www.w3.org/2000/svg">
<path d="M57.4738 51.5236H57.7352L57.7623 51.2712C58.754 41.4713 49.3238 26.6679 45.6455 21.3307C55.9682 31.2658 58.754 46.6552 58.7901 46.8265L58.9343 47.674L59.313 46.8987C63.7756 37.5766 64.2985 29.048 60.8095 21.6012C53.7324 6.49116 32.7713 0.757303 30.4093 0.153264L29.8232 0L30.0937 0.54093C32.6902 5.67075 32.8434 11.2604 33.0057 17.1836C33.186 23.3592 33.3663 29.7331 36.08 36.7202C41.4803 50.586 57.3025 51.5146 57.4648 51.5236" fill="#81CC29"/>
<path d="M167.463 131.257C164.867 139.443 160.72 147.115 155.337 153.787C149.955 160.458 143.338 166.129 135.972 170.42C128.57 174.739 120.384 177.669 111.928 179.003C103.498 180.31 94.8614 180.121 86.5221 178.372C78.2008 176.623 70.195 173.323 63.1088 168.716C55.9956 164.082 49.7478 158.195 44.7893 151.37C39.8037 144.546 36.1254 136.792 33.9797 128.687C31.825 120.546 31.1939 112.054 32.0865 103.732C32.1676 102.867 32.2758 102.029 32.402 101.172L32.375 100.775H32.4741C33.574 93.4818 35.891 86.3596 39.2989 79.8233C43.1395 72.4216 48.3595 65.7231 54.5802 60.1786C60.8279 54.634 68.0944 50.2885 75.8928 47.3585C82.0324 45.0596 88.4875 43.6712 95.0237 43.2204C88.3342 42.382 76.3075 42.2557 65.7864 49.5042L64.5243 50.3697L65.2094 49.0083C69.6451 40.2182 83.7904 20.4653 119.384 27.1367C130.22 28.7325 137.757 26.0368 137.838 26.0098L138.487 25.7754L138.352 26.4606C138.298 26.722 132.681 51.3163 111.585 62.3783C104.706 65.9936 96.9891 67.7696 88.4875 67.7696C78.7778 67.7696 68.0673 65.4436 56.3923 60.7556C56.1579 60.9629 55.9235 61.1703 55.68 61.3776C50.4871 66.1649 46.0515 71.7905 42.6166 77.9391C43.0854 80.1659 43.428 81.6805 43.6443 82.5731C43.8517 83.3664 44.5098 84.0696 45.3753 84.4303C46.8989 85.0794 48.9635 84.7458 51.1723 83.4836C52.1189 82.9607 53.2188 83.0148 54.2736 83.664C56.0857 84.7638 57.4741 87.3513 57.3659 89.4249C57.3118 90.5518 56.9242 91.4894 56.2661 92.1475C55.4276 92.9589 54.3277 93.1933 53.2549 93.4007C52.7771 93.4999 52.2812 93.608 51.8575 93.7703C50.3879 94.2662 49.1618 95.5193 48.5758 97.1692C47.9898 98.819 48.1521 100.577 48.9905 101.857C49.1709 102.164 49.3872 102.434 49.5946 102.723C50.0904 103.345 50.5863 104.003 50.8027 104.814C51.0912 105.941 50.7215 107.249 49.829 108.321C48.8553 109.448 47.3317 110.124 45.6818 110.179H45.5466C43.9419 110.179 42.4453 109.547 41.4536 108.448C40.7143 107.663 40.2455 106.672 39.8037 105.725C39.2989 104.679 38.8571 103.714 38.0728 102.975C37.2794 102.191 36.2066 101.749 34.8182 101.587C34.71 102.371 34.6379 103.183 34.5567 103.967C34.3764 105.932 34.2953 107.916 34.2953 109.881C34.2953 114.073 34.692 118.229 35.4493 122.313C41.2733 121.475 45.6818 121.601 49.6216 122.755C55.0039 124.297 59.151 127.885 60.7468 132.357C61.2967 133.871 61.5401 135.521 61.8016 137.117C62.1442 139.344 62.4507 141.462 63.5325 143.32C64.8218 145.519 66.9224 146.935 69.1492 148.476C70.8802 149.648 72.6653 150.884 74.0266 152.479C78.2549 157.474 77.5967 164.668 76.4698 171.186C80.0129 172.521 83.6642 173.567 87.3605 174.27C100.983 176.884 115.39 175.081 127.831 169.122C127.119 166.922 126.569 164.623 126.776 162.27C127.092 159.259 128.823 156.78 131.212 155.914C131.843 155.707 132.528 155.599 133.159 155.499C133.763 155.391 134.34 155.319 134.89 155.13C136.603 154.553 138.1 153.038 139.434 150.496C139.696 150.018 139.93 149.522 140.191 149.053C140.985 147.458 141.796 145.808 143.058 144.474C144.735 142.725 147.26 141.724 149.91 141.778C152.065 141.805 154.03 142.508 155.581 143.689C158.231 139.245 160.332 134.457 161.829 129.508C162.64 126.785 163.271 123.99 163.713 121.186C160.035 123.512 155.545 124.531 151.217 124.017C147.413 123.576 143.419 121.087 143.5 117.427C143.5 117.012 143.572 116.589 143.635 116.201C143.734 115.444 143.843 114.731 143.581 114.109C143.212 113.19 142.139 112.613 140.408 112.387C137.126 111.964 134.349 112.36 132.168 113.559C129.598 115.002 127.993 117.752 128.255 120.285C128.336 120.808 128.462 121.358 128.597 121.908C128.832 122.872 129.093 123.864 128.94 124.91C128.697 126.172 127.885 127.218 127.182 127.975C125.451 129.886 123.323 131.428 121.304 132.916C120.276 133.673 119.23 134.412 118.257 135.224C114.605 138.181 112.613 141.138 112.162 144.221C111.901 145.952 112.135 147.674 112.37 149.477C112.577 150.947 112.784 152.461 112.712 153.949C112.532 157.113 110.828 160.224 108.096 162.27C106.284 163.631 104.183 164.362 102.164 164.362C101.533 164.362 100.902 164.29 100.28 164.127C93.5632 162.559 91.3274 154.634 90.8045 152.227C90.3897 150.343 90.1463 148.377 89.9119 146.466C89.4972 143.274 89.0735 139.984 87.8654 136.991C87.1802 135.341 86.2606 133.772 85.3681 132.23C84.0338 129.904 82.6364 127.488 82.0594 124.802C82.0053 124.486 81.9512 124.171 81.8971 123.855C81.6898 122.737 81.5005 121.664 80.8513 120.826C80.2473 120.014 79.2736 119.6 78.2819 119.122C77.5697 118.779 76.8394 118.437 76.1813 117.941C74.9462 116.976 74.2159 115.588 74.0266 113.857C73.7922 111.657 74.5495 109.223 76.001 107.501C78.5163 104.517 82.5102 103.155 85.7377 102.083C90.2004 100.541 95.2401 98.81 100.334 99.3058C101.542 99.4411 102.777 99.6755 103.985 99.9099C106.843 100.46 109.548 100.983 112.072 99.964C115.218 98.7379 117.085 94.9423 116.165 91.6968C115.877 90.678 115.11 89.8847 114.326 89.0823C114.082 88.8389 113.848 88.6135 113.641 88.37C112.748 87.4324 112.487 85.9088 112.883 84.3672C113.325 82.7714 114.407 81.5092 115.687 81.1216C117.364 80.5987 119.104 80.9863 120.781 81.383C122.115 81.6896 123.54 82.0051 124.856 81.7977C126.93 81.4822 128.742 79.7512 129.129 77.6867C129.391 76.2983 129.075 74.8919 128.733 73.3953C128.597 72.8453 128.471 72.3224 128.39 71.7995C127.425 66.3361 129.472 60.3138 133.745 55.8421C134.034 55.4995 134.349 55.211 134.665 54.8955C136.243 53.462 137.947 52.2539 139.678 51.3163C139.912 51.4696 140.146 51.6589 140.363 51.8122C143.698 54.3005 146.899 57.0412 149.549 59.6557L151.839 61.9817C152.209 62.3783 152.597 62.766 152.939 63.1627L153.985 64.4158L156.059 66.9312L157.943 69.5457L158.917 70.88C159.205 71.3217 159.467 71.7995 159.782 72.2413L161.459 75.0181C162.009 75.9377 162.487 76.9204 162.983 77.867C163.46 78.8316 164.037 79.7783 164.425 80.797C167.968 88.6676 170.177 97.1512 170.646 105.752C171.142 114.362 170.096 123.026 167.463 131.239" fill="#41B93C"/>
<path d="M136.892 139.171C136.892 140.064 136.595 140.785 136.063 141.182C135.729 141.434 135.323 141.542 134.972 141.651L134.837 141.678C133.583 142.029 132.402 142.651 131.42 143.499C130.861 143.977 130.347 144.545 129.842 145.095C129.418 145.563 128.986 146.041 128.508 146.492C127.246 147.664 125.911 148.277 124.649 148.277H124.487C121.467 148.151 120.935 146.375 120.899 145.329C120.754 142.192 124.46 137.684 127.489 137.287C127.886 137.233 128.291 137.224 128.679 137.197C129.418 137.152 130.112 137.125 130.771 136.89C131.122 136.755 131.465 136.575 131.825 136.377C132.511 135.989 133.232 135.61 134.061 135.619C135.765 135.664 136.901 137.495 136.883 139.171" fill="#41B93C"/>
<path d="M98.1247 89.5602C96.8354 91.2731 94.4103 91.2371 92.5621 90.642C92.0933 90.4888 91.6155 90.3175 91.1557 90.1372C90.0287 89.7044 88.9739 89.2897 87.8921 89.3258C86.8372 89.3709 85.8275 89.8306 84.7637 90.3355L84.385 90.5068C83.0327 91.1199 81.5812 91.6428 80.0576 91.3633C78.7503 91.1199 77.8939 90.6871 77.3619 90.1913C76.7309 89.6053 76.5325 88.9471 76.5055 88.3701C76.3793 84.6828 83.9252 79.3817 86.2242 78.7686C91.0294 77.5155 96.6101 80.3644 98.3861 84.9983C99.0713 86.7654 98.9811 88.4423 98.1337 89.5512" fill="#41B93C"/>
<path d="M76.8572 140.353C76.8122 141.516 76.3073 142.517 75.4869 143.04C74.9009 143.418 74.2157 143.509 73.5666 143.509C73.1699 143.509 72.8003 143.472 72.4757 143.445C71.475 143.346 70.2309 143.229 69.3113 142.463C68.8334 142.066 68.5089 141.534 68.2384 141.101L68.1212 140.912C67.1115 139.271 65.4076 136.531 66.0296 134.511C66.264 133.763 66.7779 133.258 67.4811 133.096C68.3646 132.897 69.4014 133.258 70.1317 134.033C70.4743 134.394 70.7087 134.809 70.9341 135.223L71.1234 135.548C71.6012 136.35 72.4036 137.369 73.5486 137.703C73.81 137.784 74.0715 137.829 74.369 137.874C75.1082 138.009 75.9647 138.144 76.4606 138.838C76.731 139.226 76.8572 139.713 76.8392 140.362" fill="#41B93C"/>
<path d="M26.8477 232.907H27.6951V230.699H29.1286C30.6522 230.699 31.6349 229.824 31.6349 228.436C31.6349 227.047 30.6522 226.173 29.1286 226.173H26.8477V232.907ZM27.6951 229.905V226.984H29.1105C30.2014 226.984 30.7604 227.489 30.7604 228.454C30.7604 229.418 30.1924 229.914 29.1105 229.914H27.6951V229.905Z" fill="black"/>
<path d="M32.9873 232.907H33.8348V230.491H35.3223L36.9631 232.907H37.9819L36.287 230.41C37.2697 230.167 37.8737 229.427 37.8737 228.337C37.8737 227.002 36.9541 226.173 35.5567 226.173H32.9873V232.907ZM33.8348 229.689V226.984H35.4576C36.4402 226.984 37.0082 227.489 37.0082 228.346C37.0082 229.202 36.4402 229.689 35.4576 229.689H33.8348Z" fill="black"/>
<path d="M42.5981 233.034C44.6447 233.034 46.0962 231.591 46.0962 229.536C46.0962 227.48 44.6537 226.047 42.5981 226.047C40.5426 226.047 39.1182 227.489 39.1182 229.536C39.1182 231.582 40.5516 233.034 42.5981 233.034ZM39.9837 229.536C39.9837 227.967 41.0475 226.894 42.5981 226.894C44.1488 226.894 45.2126 227.967 45.2126 229.536C45.2126 231.105 44.1488 232.177 42.5981 232.177C41.0475 232.177 39.9837 231.105 39.9837 229.536Z" fill="black"/>
<path d="M49.2426 232.907H50.0901V226.984H52.362V226.173H46.9707V226.984H49.2516V232.907H49.2426Z" fill="black"/>
<path d="M53.6777 232.907H57.8699V232.114H54.5252V229.869H57.5274V229.094H54.5252V226.966H57.7618V226.173H53.6777V232.907Z" fill="black"/>
<path d="M62.4586 233.034C64.0904 233.034 65.4247 232.042 65.8214 230.537H64.9289C64.5773 231.546 63.6307 232.177 62.4857 232.177C60.9801 232.177 59.9163 231.096 59.9163 229.536C59.9163 227.976 60.9801 226.894 62.4857 226.894C63.5946 226.894 64.5142 227.489 64.8658 228.463H65.7673C65.3256 226.975 64.0454 226.047 62.4586 226.047C60.4752 226.047 59.0508 227.507 59.0508 229.536C59.0508 231.564 60.4752 233.034 62.4586 233.034Z" fill="black"/>
<path d="M68.9496 232.907H69.7971V226.984H72.069V226.173H66.6777V226.984H68.9587V232.907H68.9496Z" fill="black"/>
<path d="M75.7656 232.907H79.9578V232.114H76.6131V229.869H79.6152V229.094H76.6131V226.966H79.8496V226.173H75.7656V232.907Z" fill="black"/>
<path d="M80.7424 232.907H81.644L82.257 231.375H85.5387L86.1697 232.907H87.0623L84.2945 226.173H83.5012L80.7334 232.907H80.7424ZM82.5906 230.59L83.9069 227.363L85.2231 230.59H82.5906Z" fill="black"/>
<path d="M88.2168 232.907H89.0643V230.491H90.5518L92.1926 232.907H93.2114L91.5165 230.41C92.4992 230.167 93.1032 229.427 93.1032 228.337C93.1032 227.002 92.1836 226.173 90.7862 226.173H88.2168V232.907ZM89.0643 229.689V226.984H90.6871C91.6697 226.984 92.2377 227.489 92.2377 228.346C92.2377 229.202 91.6697 229.689 90.6871 229.689H89.0643Z" fill="black"/>
<path d="M96.393 232.907H97.2405V226.984H99.5124V226.173H94.1211V226.984H96.402V232.907H96.393Z" fill="black"/>
<path d="M105.237 232.907H106.084V226.173H105.237V229.067H101.667V226.173H100.819V232.907H101.667V229.878H105.237V232.907Z" fill="black"/>
<path d="M110.431 232.907H111.278V230.068H114.037V229.292H111.278V226.966H114.289V226.173H110.431V232.907Z" fill="black"/>
<path d="M118.86 233.034C120.906 233.034 122.358 231.591 122.358 229.536C122.358 227.48 120.915 226.047 118.86 226.047C116.804 226.047 115.38 227.489 115.38 229.536C115.38 231.582 116.813 233.034 118.86 233.034ZM116.245 229.536C116.245 227.967 117.309 226.894 118.86 226.894C120.411 226.894 121.474 227.967 121.474 229.536C121.474 231.105 120.411 232.177 118.86 232.177C117.309 232.177 116.245 231.105 116.245 229.536Z" fill="black"/>
<path d="M123.873 232.907H124.721V230.491H126.208L127.849 232.907H128.868L127.173 230.41C128.155 230.167 128.759 229.427 128.759 228.337C128.759 227.002 127.84 226.173 126.442 226.173H123.873V232.907ZM124.721 229.689V226.984H126.343C127.326 226.984 127.894 227.489 127.894 228.346C127.894 229.202 127.326 229.689 126.343 229.689H124.721Z" fill="black"/>
<path d="M135.791 233.034C137.422 233.034 138.757 232.042 139.153 230.537H138.261C137.909 231.546 136.963 232.177 135.818 232.177C134.312 232.177 133.248 231.096 133.248 229.536C133.248 227.976 134.312 226.894 135.818 226.894C136.927 226.894 137.846 227.489 138.198 228.463H139.099C138.658 226.975 137.377 226.047 135.791 226.047C133.807 226.047 132.383 227.507 132.383 229.536C132.383 231.564 133.807 233.034 135.791 233.034Z" fill="black"/>
<path d="M143.715 233.034C145.762 233.034 147.213 231.591 147.213 229.536C147.213 227.48 145.771 226.047 143.715 226.047C141.66 226.047 140.235 227.489 140.235 229.536C140.235 231.582 141.669 233.034 143.715 233.034ZM141.101 229.536C141.101 227.967 142.165 226.894 143.715 226.894C145.266 226.894 146.33 227.967 146.33 229.536C146.33 231.105 145.266 232.177 143.715 232.177C142.165 232.177 141.101 231.105 141.101 229.536Z" fill="black"/>
<path d="M148.738 232.907H149.585V227.751L151.812 231.113H152.506L154.733 227.76V232.907H155.58V226.173H154.787L152.163 230.167L149.522 226.173H148.729V232.907H148.738Z" fill="black"/>
<path d="M157.545 232.907H158.392V226.173H157.545V232.907Z" fill="black"/>
<path d="M160.35 232.907H161.188V227.642L164.911 232.907H165.705V226.173H164.875V231.447L161.152 226.173H160.35V232.907Z" fill="black"/>
<path d="M170.664 233.033C172.728 233.033 174.126 231.465 174.09 229.256H170.438V230.067H173.179C173.008 231.339 172.043 232.186 170.691 232.186C169.176 232.186 168.112 231.104 168.112 229.544C168.112 227.985 169.167 226.903 170.682 226.903C171.719 226.903 172.548 227.417 172.972 228.282H173.9C173.468 226.957 172.196 226.064 170.664 226.064C168.689 226.064 167.256 227.534 167.256 229.553C167.256 231.573 168.698 233.051 170.682 233.051L170.664 233.033Z" fill="black"/>
<path d="M68.9586 245.855C71.0232 245.855 72.4206 244.286 72.3845 242.077H68.7333V242.889H71.474C71.3027 244.16 70.338 245.007 68.9857 245.007C67.4711 245.007 66.4073 243.925 66.4073 242.366C66.4073 240.806 67.4621 239.724 68.9767 239.724C70.0135 239.724 70.8429 240.238 71.2666 241.104H72.1952C71.7625 239.778 70.4913 238.886 68.9586 238.886C66.9843 238.886 65.5508 240.355 65.5508 242.375C65.5508 244.394 66.9933 245.873 68.9767 245.873L68.9586 245.855Z" fill="black"/>
<path d="M73.8994 245.728H78.0916V244.934H74.7469V242.69H77.749V241.914H74.7469V239.787H77.9834V238.993H73.8994V245.728Z" fill="black"/>
<path d="M79.6963 245.728H80.5347V240.463L84.2581 245.728H85.0515V238.993H84.2221V244.267L80.4987 238.993H79.6963V245.728Z" fill="black"/>
<path d="M86.998 245.728H91.1903V244.934H87.8455V242.69H90.8477V241.914H87.8455V239.787H91.0821V238.993H86.998V245.728Z" fill="black"/>
<path d="M92.8057 245.728H93.6531V243.312H95.1407L96.7815 245.728H97.8003L96.1053 243.23C97.088 242.987 97.6921 242.248 97.6921 241.157C97.6921 239.823 96.7725 238.993 95.3751 238.993H92.8057V245.728ZM93.6531 242.509V239.805H95.2759C96.2586 239.805 96.8266 240.309 96.8266 241.166C96.8266 242.022 96.2586 242.509 95.2759 242.509H93.6531Z" fill="black"/>
<path d="M98.5295 245.728H99.4311L100.044 244.195H103.326L103.957 245.728H104.849L102.082 238.993H101.288L98.5205 245.728H98.5295ZM100.378 243.411L101.694 240.183L103.01 243.411H100.378Z" fill="black"/>
<path d="M107.626 245.728H108.474V239.805H110.746V238.993H105.354V239.805H107.635V245.728H107.626Z" fill="black"/>
<path d="M112.063 245.728H112.911V238.993H112.063V245.728Z" fill="black"/>
<path d="M117.931 245.854C119.978 245.854 121.429 244.412 121.429 242.356C121.429 240.301 119.987 238.867 117.931 238.867C115.876 238.867 114.451 240.31 114.451 242.356C114.451 244.403 115.885 245.854 117.931 245.854ZM115.317 242.356C115.317 240.787 116.38 239.715 117.931 239.715C119.482 239.715 120.546 240.787 120.546 242.356C120.546 243.925 119.482 244.998 117.931 244.998C116.38 244.998 115.317 243.925 115.317 242.356Z" fill="black"/>
<path d="M122.953 245.728H123.792V240.463L127.515 245.728H128.308V238.993H127.479V244.267L123.756 238.993H122.953V245.728Z" fill="black"/>
<path d="M132.5 245.855C133.97 245.855 134.925 245.133 134.925 243.961C134.925 242.97 134.267 242.375 132.536 241.951C131.229 241.635 130.796 241.293 130.796 240.734C130.796 240.094 131.373 239.688 132.329 239.688C133.285 239.688 133.934 240.184 133.952 240.995H134.79C134.781 239.688 133.834 238.886 132.329 238.886C130.823 238.886 129.922 239.607 129.922 240.743C129.922 241.78 130.661 242.357 132.32 242.753C133.528 243.042 134.042 243.375 134.042 244.007C134.042 244.674 133.447 245.07 132.491 245.07C131.445 245.07 130.715 244.547 130.697 243.682H129.85C129.859 244.998 130.886 245.873 132.491 245.873L132.5 245.855Z" fill="black"/>
<path d="M24.7481 89.6504C24.3784 90.7864 23.9186 91.697 23.3597 92.3731C22.8097 93.0583 22.1246 93.6894 21.3132 94.2664C21.0878 94.4287 20.9435 94.5819 20.8985 94.7352C20.8353 94.9065 20.9165 95.0958 21.1419 95.2761C21.3763 95.4745 21.7639 95.6908 22.3049 95.9342L22.0975 96.5744C20.8804 96.0965 18.6806 95.3482 15.5072 94.3205L15.7145 93.6984C16.9947 93.9508 18.0586 94.059 18.9241 94.0139C19.7895 93.9689 20.5919 93.7164 21.3492 93.2206C21.8992 92.9231 22.395 92.4813 22.8368 91.9043C23.2876 91.3363 23.6302 90.7233 23.8555 90.0471C24.2522 88.7669 24.1531 87.5679 23.558 86.4409C22.963 85.314 22.0254 84.3223 20.7181 83.4568C19.4289 82.5913 17.9324 81.8881 16.2284 81.3381C9.89052 79.3097 6.1581 80.0489 5.03116 83.574C4.76971 84.3854 4.74267 85.0976 4.94101 85.6926C5.03116 85.9811 5.17541 86.2065 5.37375 86.3868C5.56308 86.5581 5.82453 86.7024 6.16712 86.8196L8.85374 87.667C9.72824 87.9555 10.3774 88.0817 10.8101 88.0637C11.2428 88.0457 11.6035 87.8744 11.8649 87.5408C12.1354 87.2163 12.4149 86.6483 12.7124 85.8459L13.2804 86.0172C12.8566 87.1441 12.3247 88.7038 11.6846 90.7143C11.1617 92.3371 10.7921 93.5722 10.5937 94.4106L10.0258 94.2393C10.1069 93.8517 10.1249 93.5542 10.0618 93.3558C10.0077 93.1665 9.83643 92.9862 9.53892 92.8149C9.25042 92.6526 8.76358 92.4633 8.06939 92.2469L2.62402 90.4979L2.81335 89.957C3.192 90.0561 3.57065 90.0922 3.95832 90.0471C4.33697 90.0201 4.56236 89.8848 4.63448 89.6504C4.73365 89.3349 4.69759 88.7759 4.51728 87.9826C4.10257 86.0893 4.12961 84.4395 4.5894 83.024C5.60816 79.8506 7.24898 77.7049 9.51187 76.578C11.7928 75.451 14.4974 75.3879 17.6258 76.3886C19.6633 77.0378 21.3312 78.0385 22.6204 79.3908C23.9096 80.7431 24.7391 82.3028 25.1177 84.0879C25.4964 85.8639 25.3701 87.7121 24.7571 89.6324L24.7481 89.6504Z" fill="black"/>
<path d="M1.65885 122.178C1.06383 121.637 0.649116 121.069 0.396682 120.465C0.135233 119.87 0 119.158 0 118.302C0.018031 117.184 0.26145 116.309 0.730256 115.669C1.21709 115.029 2.02849 114.623 3.17346 114.452L6.06744 113.947C7.46484 113.704 8.50162 113.424 9.16877 113.082C9.84493 112.739 10.1875 112.153 10.1875 111.315L10.2056 109.457L3.57916 109.385C2.83988 109.367 2.30797 109.412 1.98341 109.521C1.65885 109.638 1.44248 109.827 1.32528 110.107C1.20808 110.395 1.12694 110.864 1.08186 111.513H0.495853C0.567977 110.467 0.62207 109.016 0.649116 107.159C0.676163 105.103 0.649116 103.579 0.595023 102.597H1.18103C1.21709 103.237 1.2802 103.706 1.38839 104.003C1.50559 104.31 1.71295 104.517 2.04652 104.625C2.37108 104.724 2.90299 104.778 3.64226 104.796L17.9589 104.95C18.6801 104.959 19.212 104.914 19.5366 104.814C19.8612 104.715 20.0865 104.517 20.2128 104.21C20.339 103.922 20.4201 103.462 20.4562 102.822H21.0242C20.9701 103.805 20.934 105.274 20.907 107.222L20.8889 110.413C20.916 110.801 20.916 111.243 20.907 111.747C20.8799 114.398 20.4291 116.39 19.5546 117.698C18.6801 119.023 17.436 119.681 15.8132 119.672C14.4428 119.654 13.2438 119.149 12.207 118.13C11.1792 117.13 10.5391 115.471 10.2867 113.154C10.1244 114.885 9.73675 116.165 9.12369 117.003C8.51965 117.851 7.6181 118.392 6.41904 118.617L3.45294 119.257C2.68662 119.393 2.14569 119.564 1.83916 119.762C1.52362 119.97 1.37036 120.258 1.37036 120.628C1.37937 120.853 1.43347 121.042 1.52362 121.214C1.62279 121.376 1.78507 121.565 2.01046 121.782L1.66787 122.196L1.65885 122.178ZM20.348 111.36C20.357 110.837 20.2939 110.44 20.1587 110.197C20.0144 109.953 19.771 109.791 19.4284 109.692C19.0858 109.602 18.5719 109.548 17.8868 109.539L10.7825 109.466V110.711C10.7555 112.288 11.1612 113.37 11.9816 113.956C12.811 114.542 13.983 114.849 15.5157 114.876C17.0934 114.885 18.2834 114.614 19.1039 114.064C19.9153 113.523 20.33 112.622 20.348 111.36Z" fill="black"/>
<path d="M10.4038 145.601C8.70889 146.079 7.32952 146.538 6.25668 146.989C5.96818 145.709 5.4002 143.581 4.56176 140.606C3.43482 136.558 2.56032 133.547 1.94727 131.555L2.51524 131.401C2.7226 132.005 2.92996 132.429 3.11928 132.682C3.30861 132.943 3.57006 133.078 3.91265 133.096C4.25523 133.105 4.77813 133.015 5.49036 132.817L19.2751 128.985C19.9783 128.787 20.4651 128.589 20.7626 128.399C21.0511 128.21 21.2044 127.966 21.2314 127.651C21.2675 127.326 21.2134 126.849 21.0782 126.227L21.6191 126.073C22.115 128.093 22.9354 131.113 24.0623 135.161C24.8196 137.875 25.3966 139.804 25.7752 140.949C24.2065 141.237 22.8182 141.553 21.6011 141.886C20.7987 142.112 20.1766 142.319 19.7439 142.509L19.5726 141.868C21.4568 141.03 22.701 140.137 23.296 139.2C23.9 138.271 24.0172 137.153 23.6566 135.837L23.3411 134.692C23.1788 134.115 23.0165 133.709 22.8542 133.475C22.701 133.232 22.4756 133.105 22.1781 133.096C21.8896 133.078 21.4478 133.159 20.8438 133.322L13.9469 135.242L14.1903 136.126C14.4518 137.099 15.0197 137.748 15.8852 138.064C16.7597 138.37 17.7334 138.497 18.7972 138.424L18.9685 139.065C18.1662 139.218 17.2917 139.425 16.336 139.687L15.0017 140.065C14.0461 140.327 12.7569 140.76 11.116 141.364L10.9267 140.705C13.2527 139.642 14.1633 138.172 13.6494 136.306L13.406 135.422L6.40093 137.361C5.8059 137.532 5.39119 137.703 5.13875 137.847C4.89534 138.01 4.76912 138.235 4.74207 138.524C4.71503 138.821 4.78715 139.263 4.94943 139.84L5.32808 141.192C5.6887 142.509 6.42797 143.437 7.54589 143.987C8.67283 144.555 10.3677 144.69 12.6216 144.42L12.7929 145.078C12.1799 145.177 11.3865 145.357 10.4218 145.619L10.4038 145.601Z" fill="black"/>
<path d="M22.6101 168.598C21.1045 169.509 19.8965 170.329 18.9859 171.041C18.3548 169.878 17.2459 167.967 15.6411 165.335C13.4594 161.737 11.8096 159.069 10.6826 157.329L11.1875 157.031C11.5391 157.554 11.8366 157.915 12.089 158.122C12.3415 158.321 12.63 158.375 12.9726 158.294C13.3151 158.221 13.793 157.996 14.415 157.617L26.6581 150.198C27.2802 149.819 27.7039 149.512 27.9203 149.26C28.1457 148.999 28.2268 148.71 28.1637 148.395C28.1096 148.07 27.9473 147.619 27.6588 147.042L28.1457 146.763C29.1734 148.566 30.7782 151.261 32.9509 154.859C34.4204 157.275 35.4753 158.979 36.1424 159.97C34.6999 160.683 33.4468 161.359 32.3829 161.999C31.6527 162.432 31.1118 162.801 30.7692 163.09L30.4266 162.522C32.0133 161.206 32.9689 160.015 33.3025 158.952C33.6271 157.888 33.4378 156.77 32.7165 155.607L32.0944 154.588C31.7969 154.074 31.5265 153.732 31.3011 153.551C31.0757 153.362 30.8142 153.299 30.5077 153.362C30.2192 153.425 29.8135 153.614 29.3087 153.93L23.1871 157.653L23.674 158.447C24.1969 159.321 24.9181 159.79 25.8377 159.853C26.7482 159.916 27.7039 159.772 28.7136 159.42L29.0562 159.988C28.326 160.34 27.5416 160.764 26.6851 161.287L25.5041 162.017C24.6476 162.513 23.5117 163.279 22.0872 164.307L21.7446 163.721C23.701 162.071 24.1698 160.403 23.1691 158.744L22.6823 157.951L16.4616 161.71C15.9387 162.035 15.578 162.314 15.3887 162.54C15.2084 162.765 15.1453 163.018 15.1994 163.288C15.2625 163.577 15.4428 163.973 15.7403 164.487L16.4706 165.686C17.1828 166.849 18.1475 167.552 19.3826 167.787C20.6087 168.021 22.2675 167.706 24.3591 166.831L24.7198 167.417C24.1428 167.688 23.4305 168.084 22.5741 168.598H22.6101Z" fill="black"/>
<path d="M53.5075 178.119C52.9666 177.777 52.5068 177.605 52.1191 177.578C51.7405 177.542 51.3528 177.669 50.9381 177.975C50.5234 178.282 49.9914 178.796 49.3423 179.517L38.5057 191.408L38.0008 190.921L37.4148 190.417L38.8393 170.24L31.3834 178.444C30.6081 179.282 30.0852 179.931 29.8238 180.4C29.5623 180.878 29.4812 181.329 29.5984 181.771C29.7246 182.203 30.0762 182.753 30.6532 183.402L30.2565 183.835C29.7426 183.267 28.9853 182.546 28.0026 181.653C27.2273 180.941 26.5962 180.4 26.1094 180.04L26.5061 179.607C27.029 179.968 27.4707 180.157 27.8404 180.193C28.219 180.229 28.6067 180.103 29.0214 179.796C29.4451 179.499 29.986 178.985 30.6532 178.273L39.4072 168.653C39.8941 168.121 40.2096 167.688 40.3449 167.373C40.4801 167.066 40.4801 166.76 40.3449 166.471C40.2006 166.183 39.9211 165.813 39.4794 165.344L39.858 164.93C40.2727 165.38 40.8587 165.966 41.6431 166.679C42.3553 167.328 42.9864 167.869 43.5363 168.292L42.5446 185.963L48.6301 179.291C49.3784 178.453 49.8923 177.804 50.1718 177.335C50.4422 176.857 50.5234 176.406 50.3971 175.965C50.2709 175.532 49.9283 174.982 49.3604 174.333L49.739 173.918C50.2529 174.459 51.0012 175.18 51.9749 176.082C52.7772 176.812 53.4083 177.353 53.8952 177.696L53.5165 178.11L53.5075 178.119Z" fill="black"/>
<path d="M91.5077 192.995C90.8676 192.86 90.3898 192.806 90.0832 192.842C89.7857 192.878 89.5423 193.04 89.353 193.329C89.1637 193.617 88.9743 194.113 88.785 194.816L85.0887 208.655C84.8993 209.367 84.8092 209.899 84.8272 210.233C84.8543 210.575 84.9895 210.837 85.2419 211.026C85.5034 211.215 85.9361 211.405 86.5402 211.612L86.3869 212.18C85.3862 211.838 83.9347 211.414 82.0504 210.9C80.058 210.377 78.5795 210.016 77.6148 209.827L77.7681 209.259C78.4532 209.394 78.9581 209.448 79.2917 209.43C79.6162 209.403 79.8777 209.25 80.085 208.962C80.2924 208.682 80.4998 208.195 80.6891 207.474L84.5928 192.896L73.1521 208.655L72.7013 208.538L69.9787 188.569L66.4085 201.92C66.12 203.011 65.9668 203.832 65.9397 204.382C65.9127 204.923 66.0569 205.355 66.3544 205.68C66.661 206.004 67.2289 206.32 68.0494 206.636L67.8961 207.204C67.1839 206.951 66.1831 206.654 64.912 206.302C63.8932 206.041 63.0818 205.86 62.4688 205.761L62.622 205.193C63.2441 205.265 63.7309 205.238 64.0915 205.103C64.4431 204.95 64.7316 204.652 64.957 204.201C65.1914 203.742 65.4349 203.038 65.6873 202.101L69.0501 189.533C69.2394 188.83 69.3205 188.316 69.2935 187.973C69.2755 187.622 69.1402 187.351 68.8788 187.162C68.6173 186.973 68.1846 186.783 67.5986 186.576L67.7518 186.035C68.3378 186.252 69.1402 186.486 70.159 186.747C71.8719 187.216 73.3415 187.586 74.5766 187.856L76.587 202.939L85.3231 190.804L87.3155 191.327C89.1997 191.841 90.6602 192.211 91.688 192.436L91.5347 192.977L91.5077 192.995Z" fill="black"/>
<path d="M106.915 191.219C108.943 191.047 110.755 191.309 112.342 192.012C113.929 192.706 115.218 193.788 116.192 195.285C117.174 196.763 117.769 198.584 117.959 200.748C118.13 202.849 117.86 204.76 117.129 206.455C116.399 208.159 115.308 209.529 113.839 210.566C112.369 211.612 110.656 212.216 108.691 212.387C106.644 212.567 104.823 212.306 103.227 211.594C101.632 210.891 100.352 209.8 99.3778 208.303C98.4132 206.816 97.8362 204.985 97.6469 202.822C97.4666 200.73 97.737 198.837 98.4583 197.133C99.1705 195.429 100.261 194.059 101.731 193.022C103.209 191.985 104.931 191.381 106.915 191.219ZM106.843 191.742C105.779 191.841 104.877 192.355 104.156 193.265C103.426 194.185 102.912 195.429 102.614 197.007C102.317 198.575 102.245 200.342 102.425 202.308C102.587 204.3 102.975 206.04 103.588 207.528C104.21 209.006 104.976 210.124 105.878 210.873C106.78 211.612 107.735 211.936 108.754 211.846C109.809 211.765 110.701 211.26 111.441 210.341C112.18 209.412 112.703 208.159 113 206.581C113.298 205.003 113.361 203.236 113.19 201.262C113.009 199.27 112.613 197.539 112.009 196.078C111.396 194.609 110.629 193.509 109.719 192.751C108.799 191.994 107.843 191.651 106.843 191.733V191.742Z" fill="black"/>
<path d="M137.478 183.096C138.289 182.753 138.956 182.456 139.47 182.194L139.696 182.717C139.308 183.06 139.001 183.574 138.794 184.259C138.578 184.953 138.497 185.828 138.533 186.891L139.191 204.454C138.992 204.517 138.677 204.634 138.253 204.814C137.838 204.995 137.541 205.121 137.352 205.211L123.657 191.309C123.197 190.822 122.755 190.507 122.341 190.371C121.926 190.218 121.583 190.2 121.286 190.299L121.061 189.776C122.151 189.389 123.513 188.857 125.154 188.181C126.984 187.432 128.327 186.846 129.175 186.432L129.4 186.955C128.742 187.27 128.291 187.55 128.048 187.802C127.813 188.045 127.768 188.343 127.912 188.704C128.039 189.001 128.318 189.38 128.76 189.83L138.397 199.838L138.019 189.623C137.956 188.063 137.757 186.882 137.415 186.089C137.126 185.377 136.72 184.935 136.216 184.773C135.702 184.601 135.071 184.647 134.34 184.926L134.115 184.403C135.341 183.952 136.459 183.52 137.478 183.105V183.096Z" fill="black"/>
<path d="M165.218 182.664C166.317 184.052 167.282 185.161 168.112 185.99C167.03 186.757 165.281 188.091 162.874 190.011C159.574 192.617 157.14 194.591 155.544 195.926L155.183 195.475C155.661 195.042 155.977 194.681 156.139 194.402C156.301 194.131 156.319 193.834 156.193 193.518C156.067 193.194 155.778 192.743 155.328 192.166L146.447 180.933C145.997 180.365 145.636 179.995 145.356 179.806C145.068 179.607 144.77 179.553 144.473 179.653C144.166 179.743 143.743 179.968 143.211 180.347L142.868 179.896C144.518 178.652 146.997 176.732 150.288 174.126C152.506 172.377 154.074 171.106 154.985 170.312C155.859 171.656 156.689 172.81 157.464 173.783C157.978 174.451 158.402 174.946 158.744 175.271L158.222 175.668C156.716 174.243 155.418 173.441 154.318 173.261C153.218 173.071 152.136 173.405 151.072 174.252L150.135 174.983C149.675 175.352 149.368 175.65 149.215 175.902C149.062 176.146 149.044 176.398 149.143 176.668C149.242 176.948 149.486 177.318 149.855 177.795L154.291 183.412L155.021 182.844C155.814 182.222 156.175 181.447 156.13 180.536C156.094 179.607 155.832 178.679 155.337 177.741L155.859 177.327C156.319 178.003 156.86 178.733 157.473 179.508L158.339 180.599C158.952 181.375 159.844 182.411 161.007 183.701L160.484 184.115C158.609 182.384 156.905 182.123 155.391 183.322L154.66 183.89L159.168 189.579C159.547 190.056 159.853 190.381 160.088 190.534C160.34 190.697 160.602 190.733 160.881 190.651C161.152 190.57 161.521 190.345 161.99 189.975L163.099 189.092C164.172 188.253 164.749 187.208 164.83 185.954C164.911 184.692 164.397 183.078 163.27 181.131L163.793 180.698C164.136 181.221 164.605 181.879 165.218 182.655V182.664Z" fill="black"/>
<path d="M173.666 146.079C173.359 146.647 173.17 147.079 173.098 147.395C173.034 147.692 173.116 147.99 173.323 148.26C173.539 148.522 173.954 148.855 174.567 149.252L186.531 157.104C187.144 157.51 187.613 157.754 187.937 157.835C188.28 157.925 188.568 157.88 188.821 157.7C189.082 157.51 189.407 157.168 189.776 156.645L190.263 156.96C189.632 157.799 188.785 159.043 187.712 160.702C186.585 162.424 185.773 163.704 185.287 164.569L184.8 164.254C185.151 163.641 185.368 163.172 185.44 162.847C185.521 162.523 185.467 162.225 185.25 161.946C185.034 161.675 184.619 161.333 184.006 160.927L171.385 152.642L182.789 168.437L182.546 168.816L162.712 165.137L174.261 172.728C175.216 173.359 175.937 173.774 176.442 173.973C176.956 174.162 177.416 174.162 177.831 173.973C178.245 173.783 178.723 173.35 179.273 172.674L179.76 172.99C179.291 173.585 178.696 174.432 177.975 175.541C177.38 176.416 176.947 177.137 176.677 177.687L176.19 177.371C176.451 176.794 176.569 176.317 176.532 175.947C176.505 175.568 176.316 175.208 175.964 174.838C175.604 174.477 175.018 174.027 174.197 173.486L163.343 166.363C162.73 165.967 162.261 165.723 161.936 165.633C161.594 165.534 161.296 165.579 161.035 165.768C160.773 165.958 160.449 166.3 160.079 166.805L159.61 166.508C159.98 166.021 160.449 165.336 161.035 164.461C161.999 162.974 162.811 161.684 163.478 160.593L178.426 163.433L169.636 151.335L170.763 149.622C171.844 147.972 172.647 146.692 173.188 145.79L173.657 146.088L173.666 146.079Z" fill="black"/>
<path d="M194.185 129.752C195.889 130.202 197.313 130.509 198.467 130.671C198.062 131.942 197.476 134.07 196.682 137.054C195.6 141.102 194.825 144.131 194.356 146.16L193.788 146.007C193.915 145.367 193.969 144.898 193.942 144.582C193.915 144.276 193.761 144.032 193.473 143.852C193.175 143.663 192.661 143.473 191.949 143.284L178.128 139.624C177.425 139.434 176.911 139.353 176.569 139.362C176.226 139.362 175.965 139.497 175.757 139.759C175.559 140.02 175.361 140.462 175.153 141.075L174.612 140.922C175.207 138.92 176.037 135.9 177.11 131.852C177.84 129.112 178.327 127.155 178.579 125.992C180.085 126.542 181.446 126.975 182.654 127.29C183.475 127.507 184.106 127.642 184.574 127.705L184.403 128.345C182.348 128.111 180.833 128.246 179.841 128.76C178.841 129.265 178.164 130.166 177.813 131.483L177.515 132.628C177.362 133.223 177.308 133.655 177.326 133.944C177.353 134.223 177.488 134.44 177.741 134.602C177.984 134.764 178.399 134.927 179.003 135.089L185.918 136.928L186.143 136.026C186.405 135.053 186.242 134.214 185.656 133.511C185.07 132.799 184.295 132.213 183.348 131.744L183.52 131.104C184.286 131.365 185.151 131.627 186.116 131.897L187.45 132.258C188.415 132.51 189.758 132.799 191.471 133.123L191.282 133.782C188.74 133.52 187.216 134.323 186.72 136.189L186.495 137.09L193.518 138.947C194.113 139.11 194.546 139.182 194.834 139.155C195.132 139.128 195.366 139.002 195.528 138.776C195.691 138.542 195.844 138.127 195.997 137.532L196.358 136.18C196.709 134.863 196.538 133.682 195.853 132.628C195.177 131.573 193.797 130.599 191.724 129.698L191.913 129.039C192.49 129.265 193.256 129.508 194.221 129.752H194.185Z" fill="black"/>
<path d="M179.625 100.893C179.751 101.506 179.932 101.965 180.166 102.263C180.409 102.551 180.779 102.75 181.275 102.849C181.78 102.939 182.519 102.975 183.493 102.939L199.585 102.488L199.603 103.183L199.639 103.949L184.106 116.931L195.186 116.616C196.331 116.58 197.16 116.498 197.683 116.372C198.206 116.237 198.594 115.976 198.828 115.579C199.053 115.191 199.198 114.56 199.261 113.704L199.847 113.686C199.811 114.434 199.811 115.48 199.847 116.805C199.874 117.86 199.919 118.689 200 119.302L199.414 119.32C199.315 118.698 199.144 118.238 198.909 117.95C198.675 117.652 198.305 117.454 197.8 117.364C197.286 117.265 196.538 117.229 195.564 117.274L182.564 117.634C181.843 117.652 181.32 117.716 181.004 117.842C180.68 117.959 180.464 118.157 180.346 118.464C180.229 118.77 180.166 119.23 180.139 119.87H179.571C179.607 119.257 179.616 118.428 179.589 117.373C179.562 116.408 179.517 115.588 179.436 114.894L192.869 103.345L183.835 103.588C182.708 103.624 181.879 103.714 181.356 103.85C180.833 103.976 180.454 104.237 180.229 104.616C180.004 105.004 179.85 105.644 179.778 106.509H179.21C179.237 105.761 179.228 104.724 179.192 103.39C179.165 102.317 179.12 101.488 179.039 100.893H179.607H179.625Z" fill="black"/>
<path d="M172.539 79.2556C174.297 78.8229 175.857 78.3721 177.236 77.9213C178.102 77.6328 178.787 77.3714 179.283 77.128L179.49 77.75C177.398 78.9401 176.028 80.067 175.379 81.1309C174.721 82.1947 174.604 83.3757 175.036 84.683L175.244 85.3231L190.868 80.1211C191.634 79.8687 192.166 79.6162 192.463 79.3548C192.761 79.0843 192.905 78.7237 192.896 78.282C192.887 77.8492 192.743 77.2001 192.463 76.3436L193.004 76.1543C193.707 78.4803 194.257 80.2293 194.636 81.3923C195.024 82.5463 195.61 84.2051 196.403 86.3689L195.862 86.5582C195.565 85.6927 195.285 85.0887 195.033 84.7371C194.78 84.3855 194.456 84.1961 194.059 84.151C193.662 84.115 193.076 84.2232 192.31 84.4666L176.686 89.6685L176.894 90.2726C177.182 91.1381 177.615 91.8142 178.192 92.3011C178.769 92.7879 179.58 93.1034 180.617 93.2387C181.663 93.3919 182.997 93.3649 184.62 93.1666L184.827 93.7886C184.304 93.9239 183.61 94.1402 182.745 94.4287C181.365 94.8795 179.842 95.4565 178.165 96.1597C177.651 94.4828 176.731 91.6519 175.406 87.6671C174.081 83.6822 173.125 80.8784 172.548 79.2556H172.539Z" fill="black"/>
</svg>
