<svg width="36" height="46" viewBox="0 0 36 46" fill="none" xmlns="http://www.w3.org/2000/svg">
<path d="M7.06266 13.1604H7.12944L7.13635 13.096C7.38966 10.5928 4.98094 6.81166 4.0414 5.4484C6.67809 7.98608 7.38965 11.9169 7.39887 11.9607L7.43571 12.1772L7.53243 11.9791C8.67231 9.59803 8.80587 7.41959 7.91469 5.51749C6.107 1.65801 0.753013 0.193434 0.149682 0.0391474L0 0L0.0690835 0.138167C0.732287 1.44846 0.771435 2.87619 0.812885 4.38912C0.858941 5.96653 0.904996 7.5946 1.59814 9.37927C2.97751 12.921 7.01891 13.1581 7.06036 13.1604" fill="#5F6368"/>
<path d="M35.1574 33.5266C34.4942 35.6176 33.4349 37.5772 32.0601 39.2813C30.6854 40.9854 28.9951 42.4338 27.1137 43.53C25.2231 44.633 23.1322 45.3814 20.9722 45.7222C18.8191 46.0561 16.613 46.0078 14.4829 45.561C12.3574 45.1143 10.3126 44.2715 8.50258 43.0947C6.68568 41.9111 5.08984 40.4074 3.82331 38.6642C2.54986 36.9209 1.61033 34.9406 1.06226 32.8703C0.511896 30.7909 0.350701 28.6217 0.578677 26.4962C0.599402 26.2751 0.627035 26.061 0.659274 25.8422L0.652366 25.7409H0.677696C0.958636 23.8779 1.55045 22.0587 2.42091 20.3892C3.4019 18.4986 4.73521 16.7877 6.32414 15.3714C7.91997 13.9552 9.77602 12.8453 11.7679 12.0969C13.3361 11.5097 14.9849 11.155 16.6545 11.0399C14.9458 10.8257 11.8739 10.7935 9.18651 12.6449L8.86411 12.866L9.03913 12.5183C10.1721 10.2731 13.7852 5.22764 22.8766 6.93171C25.6446 7.3393 27.5697 6.65077 27.5904 6.64386L27.7562 6.58398L27.7217 6.759C27.7078 6.82578 26.2732 13.1078 20.8847 15.9333C19.1277 16.8567 17.1565 17.3104 14.9849 17.3104C12.5048 17.3104 9.76911 16.7163 6.787 15.5188C6.72713 15.5718 6.66725 15.6247 6.60508 15.6777C5.27867 16.9005 4.1457 18.3374 3.26834 19.9079C3.38808 20.4767 3.47559 20.8636 3.53085 21.0916C3.58382 21.2942 3.75192 21.4738 3.97299 21.5659C4.36216 21.7317 4.8895 21.6465 5.45368 21.3241C5.69548 21.1906 5.97642 21.2044 6.24584 21.3702C6.7087 21.6511 7.06333 22.312 7.0357 22.8417C7.02188 23.1295 6.92286 23.369 6.75476 23.5371C6.5406 23.7444 6.25966 23.8043 5.98563 23.8572C5.86358 23.8825 5.73693 23.9102 5.6287 23.9516C5.25334 24.0783 4.94016 24.3984 4.79048 24.8198C4.6408 25.2412 4.68225 25.6902 4.89641 26.0172C4.94246 26.0955 4.99773 26.1646 5.05069 26.2383C5.17735 26.3972 5.304 26.5653 5.35927 26.7726C5.43296 27.0604 5.33854 27.3943 5.11057 27.6683C4.86187 27.9562 4.47269 28.1289 4.05128 28.1427H4.01674C3.60685 28.1427 3.22458 27.9815 2.97128 27.7006C2.78245 27.5002 2.6627 27.2469 2.54986 27.0051C2.42091 26.738 2.30807 26.4916 2.10773 26.3028C1.90508 26.1024 1.63105 25.9896 1.27642 25.9482C1.24879 26.1485 1.23037 26.3557 1.20964 26.5561C1.16359 27.0581 1.14286 27.5647 1.14286 28.0667C1.14286 29.1375 1.24418 30.1991 1.43762 31.2423C2.92522 31.0281 4.05128 31.0603 5.0576 31.3551C6.43237 31.7489 7.49165 32.6654 7.89925 33.8076C8.03972 34.1944 8.10189 34.6159 8.16867 35.0235C8.25618 35.5922 8.33447 36.1334 8.61081 36.6078C8.94011 37.1697 9.47666 37.5312 10.0454 37.925C10.4876 38.2243 10.9435 38.5398 11.2913 38.9474C12.3713 40.2232 12.2032 42.0608 11.9153 43.7257C12.8203 44.0665 13.7529 44.3336 14.6971 44.5133C18.1766 45.1811 21.8565 44.7205 25.0343 43.1984C24.8524 42.6365 24.7119 42.0493 24.7649 41.4482C24.8455 40.6791 25.2876 40.0458 25.8979 39.8248C26.0591 39.7718 26.2341 39.7442 26.3953 39.7188C26.5495 39.6912 26.6969 39.6728 26.8374 39.6244C27.2749 39.4771 27.6572 39.0902 27.998 38.4408C28.0648 38.3187 28.1247 38.1921 28.1914 38.0723C28.3941 37.6648 28.6013 37.2433 28.9237 36.9025C29.352 36.4558 29.9968 36.2002 30.6738 36.214C31.2242 36.2209 31.7262 36.4005 32.1223 36.7022C32.7993 35.5669 33.3359 34.3441 33.7181 33.0799C33.9254 32.3845 34.0866 31.6706 34.1994 30.9544C33.2599 31.5485 32.1131 31.8088 31.0077 31.6775C30.036 31.5647 29.0158 30.9291 29.0366 29.9942C29.0366 29.8882 29.055 29.78 29.0711 29.681C29.0964 29.4875 29.1241 29.3056 29.0573 29.1467C28.9629 28.9118 28.6888 28.7645 28.2467 28.7069C27.4085 28.5987 26.6992 28.7 26.142 29.0063C25.4857 29.3747 25.0758 30.0771 25.1425 30.7241C25.1633 30.8577 25.1955 30.9982 25.23 31.1386C25.2899 31.385 25.3567 31.6383 25.3176 31.9055C25.2554 32.2279 25.0481 32.495 24.8685 32.6884C24.4264 33.1766 23.8829 33.5704 23.3671 33.9503C23.1046 34.1438 22.8374 34.3326 22.5887 34.5399C21.6561 35.2952 21.1472 36.0505 21.0321 36.8381C20.9653 37.2802 21.0252 37.72 21.085 38.1806C21.138 38.5559 21.191 38.9428 21.1725 39.3228C21.1265 40.131 20.6912 40.9255 19.9935 41.4482C19.5306 41.796 18.9941 41.9825 18.4783 41.9825C18.3171 41.9825 18.1559 41.9641 17.997 41.9226C16.2814 41.5219 15.7103 39.4978 15.5767 38.8829C15.4708 38.4016 15.4086 37.8996 15.3488 37.4114C15.2428 36.5963 15.1346 35.7557 14.826 34.9912C14.651 34.5698 14.4161 34.1691 14.1882 33.7753C13.8474 33.1812 13.4904 32.5641 13.343 31.8778C13.3292 31.7972 13.3154 31.7166 13.3016 31.636C13.2486 31.3505 13.2003 31.0765 13.0345 30.8623C12.8802 30.6551 12.6315 30.5491 12.3782 30.4271C12.1963 30.3396 12.0097 30.2521 11.8416 30.1254C11.5261 29.879 11.3396 29.5244 11.2913 29.0822C11.2314 28.5204 11.4248 27.8986 11.7956 27.4588C12.438 26.6966 13.4582 26.3488 14.2826 26.0748C15.4225 25.681 16.7097 25.2389 18.0108 25.3655C18.3194 25.4001 18.6349 25.46 18.9434 25.5198C19.6734 25.6603 20.3643 25.7939 21.009 25.5336C21.8127 25.2205 22.2894 24.251 22.0545 23.422C21.9808 23.1618 21.7851 22.9591 21.5847 22.7542C21.5226 22.692 21.4627 22.6344 21.4097 22.5723C21.1817 22.3328 21.115 21.9436 21.2163 21.5498C21.3291 21.1422 21.6055 20.8198 21.9325 20.7208C22.3608 20.5873 22.8052 20.6863 23.2335 20.7876C23.5743 20.8659 23.9382 20.9465 24.2744 20.8935C24.804 20.8129 25.2669 20.3708 25.3659 19.8435C25.4327 19.4888 25.3521 19.1296 25.2646 18.7473C25.23 18.6069 25.1978 18.4733 25.1771 18.3397C24.9307 16.9442 25.4534 15.406 26.5449 14.2638C26.6186 14.1763 26.6992 14.1026 26.7798 14.022C27.1828 13.6559 27.618 13.3473 28.0602 13.1078C28.12 13.1469 28.1799 13.1953 28.2352 13.2344C29.0872 13.87 29.9047 14.5701 30.5817 15.2379L31.1666 15.832C31.2611 15.9333 31.3601 16.0323 31.4476 16.1337L31.7147 16.4537L32.2443 17.0962L32.7256 17.764L32.9743 18.1048C33.048 18.2177 33.1148 18.3397 33.1954 18.4526L33.6237 19.1618C33.7642 19.3967 33.8862 19.6477 34.0129 19.8895C34.1349 20.1359 34.2823 20.3777 34.3813 20.6379C35.2863 22.6483 35.8505 24.8152 35.9703 27.012C36.0969 29.2112 35.8298 31.4242 35.1574 33.522" fill="#5F6368"/>
<path d="M27.3489 35.548C27.3489 35.7759 27.2729 35.9602 27.137 36.0615C27.0518 36.126 26.9482 36.1536 26.8584 36.1812L26.8239 36.1881C26.5038 36.2779 26.2021 36.4368 25.9511 36.6533C25.8083 36.7754 25.6771 36.9204 25.5481 37.0609C25.4399 37.1806 25.3293 37.3027 25.2073 37.4178C24.8849 37.7172 24.5441 37.8738 24.2217 37.8738H24.1803C23.4088 37.8415 23.2729 37.3879 23.2637 37.1208C23.2269 36.3194 24.1733 35.168 24.9471 35.0667C25.0484 35.0529 25.152 35.0506 25.251 35.0437C25.4399 35.0321 25.6172 35.0252 25.7853 34.9654C25.8751 34.9308 25.9626 34.8848 26.0547 34.8341C26.2297 34.7351 26.414 34.6384 26.6258 34.6407C27.061 34.6522 27.3512 35.1196 27.3466 35.548" fill="#5F6368"/>
<path d="M17.4463 22.876C17.117 23.3135 16.4976 23.3043 16.0255 23.1523C15.9058 23.1132 15.7837 23.0694 15.6663 23.0234C15.3784 22.9128 15.109 22.8069 14.8327 22.8161C14.5632 22.8276 14.3053 22.9451 14.0336 23.074L13.9369 23.1178C13.5914 23.2744 13.2207 23.4079 12.8315 23.3365C12.4976 23.2744 12.2789 23.1638 12.143 23.0372C11.9818 22.8875 11.9311 22.7194 11.9242 22.572C11.892 21.6302 13.8194 20.2761 14.4066 20.1195C15.634 19.7995 17.0595 20.5271 17.5131 21.7108C17.6881 22.1621 17.6651 22.5904 17.4486 22.8737" fill="#5F6368"/>
<path d="M12.0145 35.8499C12.003 36.1469 11.874 36.4025 11.6645 36.5361C11.5148 36.6328 11.3398 36.6558 11.174 36.6558C11.0727 36.6558 10.9782 36.6466 10.8953 36.6397C10.6397 36.6144 10.322 36.5845 10.0871 36.3887C9.96502 36.2874 9.88212 36.1515 9.81304 36.041L9.7831 35.9926C9.52519 35.5735 9.08996 34.8735 9.24885 34.3577C9.30872 34.1665 9.43998 34.0376 9.6196 33.9961C9.84527 33.9455 10.1101 34.0376 10.2966 34.2356C10.3841 34.3277 10.444 34.4336 10.5016 34.5396L10.5499 34.6225C10.672 34.8274 10.8769 35.0876 11.1694 35.1728C11.2362 35.1936 11.3029 35.2051 11.3789 35.2166C11.5678 35.2511 11.7865 35.2857 11.9132 35.463C11.9823 35.562 12.0145 35.6864 12.0099 35.8522" fill="#5F6368"/>
</svg>
