<svg width="55" height="70" viewBox="0 0 55 70" fill="none" xmlns="http://www.w3.org/2000/svg">
<path d="M10.6081 19.7669H10.7084L10.7187 19.6701C11.0992 15.9104 7.48133 10.2311 6.07015 8.18346C10.0304 11.995 11.0992 17.8992 11.113 17.9649L11.1684 18.29L11.3137 17.9925C13.0257 14.4162 13.2264 11.1442 11.8878 8.28723C9.17267 2.49032 1.13102 0.290537 0.224821 0.0587992L0 0L0.103763 0.207527C1.09989 2.17557 1.15869 4.32001 1.22095 6.59243C1.29012 8.96169 1.3593 11.407 2.40039 14.0876C4.4722 19.4072 10.5423 19.7634 10.6046 19.7669" fill="white"/>
<path d="M52.8057 50.3573C51.8095 53.4979 50.2185 56.4413 48.1536 59.0008C46.0887 61.5603 43.55 63.7359 40.7242 65.3822C37.8845 67.039 34.7439 68.1631 31.4996 68.675C28.2657 69.1765 24.9522 69.1039 21.7528 68.4329C18.5603 67.7619 15.4889 66.496 12.7703 64.7285C10.0414 62.9507 7.64444 60.6921 5.74212 58.0738C3.82941 55.4556 2.41823 52.481 1.59505 49.3716C0.768398 46.2483 0.526284 42.9901 0.868703 39.7977C0.899832 39.4656 0.941337 39.144 0.98976 38.8154L0.979384 38.6632H1.01743C1.4394 35.8651 2.32831 33.1326 3.63572 30.625C5.10916 27.7854 7.11179 25.2155 9.49834 23.0883C11.8953 20.9612 14.683 19.2941 17.6749 18.17C20.0303 17.288 22.5068 16.7553 25.0144 16.5824C22.448 16.2607 17.834 16.2123 13.7976 18.9931L13.3134 19.3252L13.5762 18.8029C15.278 15.4306 20.7048 7.85243 34.36 10.4119C38.5175 11.0241 41.409 9.98995 41.4401 9.97958L41.6892 9.88965L41.6373 10.1525C41.6165 10.2528 39.4617 19.6884 31.3682 23.9323C28.7291 25.3192 25.7684 26.0006 22.5068 26.0006C18.7817 26.0006 14.6727 25.1083 10.1936 23.3097C10.1036 23.3892 10.0137 23.4688 9.92032 23.5484C7.92806 25.385 6.22634 27.5432 4.90855 29.9021C5.08841 30.7564 5.21984 31.3375 5.30285 31.6799C5.3824 31.9843 5.63489 32.2541 5.96694 32.3924C6.55147 32.6415 7.34353 32.5135 8.19093 32.0293C8.5541 31.8287 8.97607 31.8494 9.38075 32.0984C10.076 32.5204 10.6086 33.5131 10.5671 34.3086C10.5464 34.741 10.3976 35.1007 10.1451 35.3532C9.82347 35.6644 9.4015 35.7544 8.98991 35.8339C8.80659 35.872 8.61636 35.9135 8.45379 35.9757C7.89001 36.166 7.41962 36.6467 7.1948 37.2797C6.96998 37.9126 7.03224 38.5871 7.35391 39.0783C7.42308 39.1959 7.50609 39.2996 7.58564 39.4103C7.77588 39.649 7.96611 39.9014 8.04912 40.2127C8.1598 40.6451 8.01799 41.1466 7.67557 41.5582C7.30202 41.9905 6.71749 42.2499 6.08453 42.2707H6.03265C5.41699 42.2707 4.84283 42.0286 4.46237 41.6066C4.17875 41.3057 3.99889 40.9252 3.82941 40.5621C3.63572 40.1608 3.46624 39.7908 3.16533 39.5071C2.86096 39.2062 2.44936 39.0367 1.91671 38.9745C1.87521 39.2754 1.84754 39.5867 1.81641 39.8876C1.74723 40.6416 1.7161 41.4025 1.7161 42.1566C1.7161 43.7649 1.86829 45.3594 2.15883 46.9262C4.39319 46.6045 6.08453 46.653 7.59602 47.0957C9.66091 47.6871 11.2519 49.0637 11.8641 50.7793C12.0751 51.3604 12.1685 51.9933 12.2688 52.6055C12.4003 53.4598 12.5179 54.2727 12.9329 54.9852C13.4275 55.8291 14.2334 56.3721 15.0877 56.9636C15.7518 57.4132 16.4366 57.8871 16.9589 58.4993C18.5811 60.4154 18.3286 63.1755 17.8962 65.6762C19.2555 66.1881 20.6564 66.5894 22.0744 66.8591C27.3007 67.8622 32.8278 67.1704 37.6009 64.8842C37.3276 64.0402 37.1167 63.1582 37.1962 62.2555C37.3173 61.1003 37.9814 60.1491 38.8979 59.8171C39.14 59.7375 39.4029 59.696 39.645 59.658C39.8768 59.6165 40.0981 59.5888 40.3091 59.5162C40.9663 59.2948 41.5404 58.7137 42.0523 57.7383C42.1526 57.555 42.2426 57.3648 42.3429 57.1849C42.6472 56.5727 42.9585 55.9398 43.4428 55.4279C44.0861 54.7569 45.0546 54.373 46.0714 54.3937C46.8981 54.4041 47.6521 54.6739 48.247 55.127C49.2639 53.4218 50.0698 51.5852 50.6439 49.6863C50.9552 48.6418 51.1973 47.5695 51.3668 46.4939C49.9556 47.3862 48.2332 47.7771 46.5729 47.5799C45.1133 47.4104 43.5811 46.4558 43.6122 45.0516C43.6122 44.8925 43.6399 44.7299 43.6641 44.5812C43.7022 44.2906 43.7437 44.0174 43.6434 43.7787C43.5016 43.4259 43.09 43.2046 42.4259 43.1181C41.1669 42.9555 40.1016 43.1077 39.2646 43.5677C38.2788 44.1211 37.6631 45.1761 37.7635 46.148C37.7946 46.3486 37.843 46.5596 37.8949 46.7706C37.9848 47.1407 38.0851 47.5211 38.0263 47.9223C37.9329 48.4066 37.6216 48.8078 37.3519 49.0983C36.6878 49.8316 35.8715 50.423 35.0967 50.9937C34.7024 51.2843 34.3012 51.5679 33.9277 51.8792C32.5269 53.0137 31.7625 54.1481 31.5895 55.331C31.4892 55.9951 31.5792 56.6558 31.6691 57.3475C31.7486 57.9113 31.8282 58.4924 31.8005 59.0631C31.7314 60.2771 31.0776 61.4704 30.0296 62.2555C29.3344 62.7778 28.5285 63.0579 27.7538 63.0579C27.5116 63.0579 27.2695 63.0303 27.0309 62.968C24.4541 62.3662 23.5963 59.3259 23.3957 58.4024C23.2366 57.6796 23.1432 56.9255 23.0533 56.1923C22.8942 54.9679 22.7316 53.7054 22.2681 52.5571C22.0053 51.9241 21.6525 51.3223 21.3101 50.7309C20.7982 49.8385 20.2621 48.9115 20.0407 47.8808C20.0199 47.7598 19.9992 47.6387 19.9784 47.5177C19.8989 47.0888 19.8262 46.6772 19.5772 46.3555C19.3455 46.0442 18.9719 45.8851 18.5915 45.7018C18.3182 45.5704 18.0381 45.4389 17.7856 45.2487C17.3117 44.8786 17.0316 44.346 16.9589 43.6819C16.869 42.8379 17.1595 41.9041 17.7164 41.2434C18.6814 40.0986 20.2136 39.5763 21.4519 39.1647C23.164 38.5733 25.0974 37.9092 27.0516 38.0994C27.5151 38.1513 27.989 38.2412 28.4524 38.3312C29.5489 38.5421 30.5865 38.7428 31.555 38.3519C32.7621 37.8815 33.478 36.4254 33.1252 35.1802C33.0146 34.7894 32.7206 34.485 32.4196 34.1772C32.3263 34.0838 32.2363 33.9973 32.1568 33.9039C31.8144 33.5442 31.7141 32.9597 31.8662 32.3682C32.0357 31.756 32.4508 31.2718 32.9419 31.1231C33.5853 30.9225 34.2528 31.0712 34.8961 31.2234C35.408 31.341 35.9545 31.462 36.4595 31.3825C37.255 31.2614 37.9502 30.5973 38.099 29.8053C38.1993 29.2726 38.0782 28.7331 37.9468 28.1589C37.8949 27.9479 37.8465 27.7473 37.8153 27.5467C37.4452 25.4507 38.2304 23.1402 39.8698 21.4247C39.9805 21.2932 40.1016 21.1825 40.2226 21.0615C40.8279 20.5115 41.4816 20.0481 42.1457 19.6884C42.2356 19.7472 42.3256 19.8198 42.4086 19.8786C43.6883 20.8332 44.9162 21.8847 45.9331 22.8877L46.8116 23.7801C46.9534 23.9323 47.1021 24.081 47.2336 24.2332L47.6348 24.714L48.4303 25.679L49.1532 26.682L49.5267 27.1939C49.6374 27.3634 49.7377 27.5467 49.8588 27.7162L50.5021 28.7815C50.7131 29.1343 50.8964 29.5113 51.0867 29.8745C51.27 30.2445 51.4913 30.6077 51.6401 30.9986C52.9994 34.0181 53.8468 37.2728 54.0266 40.5724C54.2168 43.8756 53.8156 47.1995 52.8057 50.3504" fill="white"/>
<path d="M41.0769 53.3931C41.0769 53.7355 40.9628 54.0122 40.7587 54.1644C40.6307 54.2612 40.4751 54.3028 40.3402 54.3443L40.2883 54.3546C39.8075 54.4895 39.3544 54.7282 38.9774 55.0533C38.763 55.2366 38.5658 55.4545 38.3721 55.6655C38.2096 55.8454 38.0435 56.0287 37.8602 56.2016C37.376 56.6513 36.8641 56.8865 36.3799 56.8865H36.3176C35.1589 56.838 34.9549 56.1567 34.941 55.7554C34.8857 54.5518 36.3072 52.8224 37.4694 52.6702C37.6216 52.6495 37.7772 52.646 37.9259 52.6356C38.2096 52.6183 38.4759 52.608 38.7284 52.518C38.8633 52.4661 38.9947 52.397 39.1331 52.3209C39.3959 52.1721 39.6726 52.0269 39.9908 52.0303C40.6445 52.0476 41.0803 52.7498 41.0734 53.3931" fill="white"/>
<path d="M26.2034 34.3592C25.7088 35.0163 24.7784 35.0025 24.0694 34.7742C23.8895 34.7154 23.7062 34.6497 23.5298 34.5805C23.0975 34.4145 22.6928 34.2554 22.2777 34.2692C21.873 34.2865 21.4857 34.4629 21.0775 34.6566L20.9323 34.7223C20.4134 34.9575 19.8566 35.1581 19.272 35.0509C18.7705 34.9575 18.4419 34.7915 18.2379 34.6013C17.9958 34.3765 17.9197 34.124 17.9093 33.9026C17.8609 32.488 20.7559 30.4542 21.6379 30.219C23.4814 29.7382 25.6224 30.8312 26.3037 32.609C26.5666 33.2869 26.532 33.9303 26.2069 34.3557" fill="white"/>
<path d="M18.0459 53.8459C18.0286 54.2921 17.8349 54.676 17.5202 54.8766C17.2953 55.0219 17.0325 55.0565 16.7834 55.0565C16.6312 55.0565 16.4894 55.0426 16.3649 55.0323C15.981 54.9942 15.5037 54.9492 15.1509 54.6553C14.9676 54.5031 14.8431 54.299 14.7393 54.133L14.6943 54.0603C14.307 53.4308 13.6532 52.3794 13.8919 51.6046C13.9818 51.3175 14.179 51.1238 14.4488 51.0616C14.7877 50.9855 15.1855 51.1238 15.4656 51.4213C15.5971 51.5596 15.687 51.7188 15.7735 51.8779L15.8461 52.0024C16.0294 52.3102 16.3373 52.701 16.7765 52.829C16.8768 52.8601 16.9771 52.8774 17.0913 52.8947C17.3749 52.9466 17.7035 52.9985 17.8937 53.2648C17.9975 53.4136 18.0459 53.6003 18.039 53.8494" fill="white"/>
</svg>
