<svg width="236" height="46" viewBox="0 0 236 46" fill="none" xmlns="http://www.w3.org/2000/svg">
<path d="M7.06266 13.1604H7.12944L7.13635 13.096C7.38965 10.5928 4.98094 6.81165 4.0414 5.4484C6.67809 7.98608 7.38965 11.9169 7.39887 11.9607L7.43571 12.1772L7.53243 11.9791C8.67231 9.59803 8.80587 7.41959 7.91469 5.51749C6.107 1.65801 0.753013 0.193434 0.149682 0.0391474L0 0L0.0690835 0.138167C0.732287 1.44846 0.771435 2.87619 0.812885 4.38912C0.858941 5.96653 0.904996 7.5946 1.59814 9.37927C2.97751 12.921 7.01891 13.1581 7.06036 13.1604" fill="#72BF47"/>
<path d="M35.1569 33.5261C34.4937 35.6171 33.4344 37.5768 32.0596 39.2808C30.6849 40.9849 28.9946 42.4333 27.1132 43.5295C25.2227 44.6325 23.1317 45.3809 20.9717 45.7217C18.8186 46.0556 16.6125 46.0073 14.4824 45.5605C12.357 45.1138 10.3121 44.271 8.50209 43.0942C6.68519 41.9106 5.08935 40.4069 3.82282 38.6637C2.54938 36.9205 1.60984 34.9401 1.06177 32.8699C0.511407 30.7904 0.350212 28.6212 0.578189 26.4957C0.598914 26.2747 0.626547 26.0605 0.658786 25.8417L0.651878 25.7404H0.677208C0.958148 23.8775 1.54997 22.0582 2.42042 20.3887C3.40141 18.4981 4.73472 16.7872 6.32365 15.3709C7.91948 13.9547 9.77553 12.8448 11.7674 12.0964C13.3356 11.5092 14.9844 11.1545 16.654 11.0394C14.9453 10.8252 11.8734 10.793 9.18602 12.6444L8.86363 12.8655L9.03864 12.5178C10.1716 10.2726 13.7847 5.22715 22.8761 6.93122C25.6441 7.33881 27.5692 6.65028 27.5899 6.64337L27.7557 6.5835L27.7212 6.75851C27.7074 6.82529 26.2727 13.1073 20.8842 15.9328C19.1272 16.8562 17.156 17.3099 14.9844 17.3099C12.5043 17.3099 9.76862 16.7158 6.78651 15.5183C6.72664 15.5713 6.66677 15.6243 6.60459 15.6772C5.27818 16.9 4.14521 18.3369 3.26785 19.9074C3.38759 20.4762 3.4751 20.8631 3.53037 21.0911C3.58333 21.2937 3.75143 21.4733 3.9725 21.5655C4.36167 21.7313 4.88901 21.646 5.4532 21.3237C5.69499 21.1901 5.97593 21.2039 6.24535 21.3697C6.70822 21.6507 7.06285 22.3116 7.03521 22.8412C7.0214 23.129 6.92238 23.3685 6.75427 23.5366C6.54011 23.7439 6.25917 23.8038 5.98514 23.8567C5.86309 23.8821 5.73644 23.9097 5.62821 23.9511C5.25285 24.0778 4.93967 24.3979 4.78999 24.8193C4.64031 25.2407 4.68176 25.6898 4.89592 26.0167C4.94198 26.095 4.99724 26.1641 5.05021 26.2378C5.17686 26.3967 5.30351 26.5648 5.35878 26.7721C5.43247 27.0599 5.33806 27.3938 5.11008 27.6678C4.86138 27.9557 4.47221 28.1284 4.0508 28.1422H4.01625C3.60636 28.1422 3.22409 27.981 2.97079 27.7001C2.78196 27.4997 2.66221 27.2464 2.54938 27.0046C2.42042 26.7375 2.30758 26.4911 2.10724 26.3023C1.9046 26.102 1.63056 25.9891 1.27593 25.9477C1.2483 26.148 1.22988 26.3553 1.20915 26.5556C1.1631 27.0576 1.14237 27.5642 1.14237 28.0662C1.14237 29.137 1.24369 30.1986 1.43713 31.2418C2.92473 31.0276 4.0508 31.0599 5.05711 31.3546C6.43188 31.7484 7.49117 32.6649 7.89876 33.8071C8.03923 34.194 8.1014 34.6154 8.16819 35.023C8.25569 35.5918 8.33399 36.1329 8.61032 36.6073C8.93962 37.1692 9.47617 37.5307 10.045 37.9245C10.4871 38.2238 10.943 38.5393 11.2908 38.9469C12.3708 40.2227 12.2027 42.0603 11.9148 43.7252C12.8198 44.066 13.7525 44.3331 14.6966 44.5128C18.1761 45.1806 21.856 44.72 25.0338 43.1979C24.8519 42.636 24.7114 42.0488 24.7644 41.4477C24.845 40.6786 25.2871 40.0453 25.8974 39.8243C26.0586 39.7713 26.2336 39.7437 26.3948 39.7184C26.5491 39.6907 26.6964 39.6723 26.8369 39.6239C27.2744 39.4766 27.6567 39.0897 27.9975 38.4403C28.0643 38.3183 28.1242 38.1916 28.1909 38.0719C28.3936 37.6643 28.6008 37.2429 28.9232 36.902C29.3516 36.4553 29.9963 36.1997 30.6734 36.2135C31.2237 36.2204 31.7257 36.4 32.1218 36.7017C32.7988 35.5664 33.3354 34.3436 33.7176 33.0794C33.9249 32.384 34.0861 31.6701 34.1989 30.9539C33.2594 31.5481 32.1126 31.8083 31.0073 31.677C30.0355 31.5642 29.0153 30.9286 29.0361 29.9937C29.0361 29.8877 29.0545 29.7795 29.0706 29.6805C29.0959 29.4871 29.1236 29.3051 29.0568 29.1462C28.9624 28.9114 28.6883 28.764 28.2462 28.7064C27.408 28.5982 26.6987 28.6995 26.1415 29.0058C25.4852 29.3742 25.0753 30.0766 25.1421 30.7237C25.1628 30.8572 25.195 30.9977 25.2296 31.1382C25.2894 31.3846 25.3562 31.6379 25.3171 31.905C25.2549 32.2274 25.0476 32.4945 24.868 32.6879C24.4259 33.1761 23.8824 33.5699 23.3666 33.9499C23.1041 34.1433 22.837 34.3321 22.5883 34.5394C21.6556 35.2947 21.1467 36.05 21.0316 36.8376C20.9648 37.2797 21.0247 37.7195 21.0845 38.1801C21.1375 38.5554 21.1905 38.9423 21.172 39.3223C21.126 40.1306 20.6908 40.925 19.993 41.4477C19.5302 41.7955 18.9936 41.982 18.4778 41.982C18.3166 41.982 18.1554 41.9636 17.9965 41.9221C16.2809 41.5214 15.7098 39.4973 15.5763 38.8824C15.4703 38.4012 15.4082 37.8991 15.3483 37.411C15.2424 36.5958 15.1341 35.7552 14.8256 34.9907C14.6505 34.5693 14.4157 34.1686 14.1877 33.7748C13.8469 33.1807 13.4899 32.5636 13.3426 31.8773C13.3287 31.7968 13.3149 31.7162 13.3011 31.6356C13.2481 31.35 13.1998 31.076 13.034 30.8618C12.8797 30.6546 12.631 30.5486 12.3777 30.4266C12.1958 30.3391 12.0092 30.2516 11.8411 30.1249C11.5257 29.8785 11.3391 29.5239 11.2908 29.0818C11.2309 28.5199 11.4243 27.8981 11.7951 27.4583C12.4376 26.6961 13.4577 26.3483 14.2821 26.0743C15.422 25.6805 16.7092 25.2384 18.0103 25.3651C18.3189 25.3996 18.6344 25.4595 18.9429 25.5193C19.6729 25.6598 20.3638 25.7934 21.0085 25.5332C21.8122 25.22 22.2889 24.2505 22.054 23.4215C21.9803 23.1613 21.7846 22.9586 21.5842 22.7537C21.5221 22.6915 21.4622 22.6339 21.4092 22.5718C21.1813 22.3323 21.1145 21.9431 21.2158 21.5493C21.3286 21.1417 21.605 20.8193 21.932 20.7203C22.3603 20.5868 22.8047 20.6858 23.233 20.7871C23.5739 20.8654 23.9377 20.946 24.2739 20.893C24.8035 20.8124 25.2664 20.3703 25.3654 19.843C25.4322 19.4883 25.3516 19.1291 25.2641 18.7468C25.2296 18.6064 25.1973 18.4728 25.1766 18.3392C24.9302 16.9438 25.4529 15.4055 26.5445 14.2633C26.6181 14.1758 26.6987 14.1021 26.7793 14.0215C27.1823 13.6554 27.6176 13.3468 28.0597 13.1073C28.1196 13.1464 28.1794 13.1948 28.2347 13.234C29.0867 13.8695 29.9042 14.5696 30.5812 15.2374L31.1662 15.8315C31.2606 15.9328 31.3596 16.0318 31.4471 16.1332L31.7142 16.4533L32.2439 17.0957L32.7251 17.7635L32.9738 18.1044C33.0475 18.2172 33.1143 18.3392 33.1949 18.4521L33.6232 19.1613C33.7637 19.3962 33.8857 19.6472 34.0124 19.889C34.1344 20.1354 34.2818 20.3772 34.3808 20.6374C35.2858 22.6478 35.85 24.8147 35.9698 27.0116C36.0964 29.2107 35.8293 31.4237 35.1569 33.5215" fill="#72BF47"/>
<path d="M27.3484 35.548C27.3484 35.7759 27.2724 35.9602 27.1365 36.0615C27.0513 36.126 26.9477 36.1536 26.8579 36.1812L26.8234 36.1881C26.5033 36.2779 26.2016 36.4368 25.9506 36.6533C25.8078 36.7754 25.6766 36.9204 25.5476 37.0609C25.4394 37.1806 25.3289 37.3027 25.2068 37.4178C24.8844 37.7172 24.5436 37.8738 24.2212 37.8738H24.1798C23.4083 37.8415 23.2725 37.3879 23.2633 37.1208C23.2264 36.3194 24.1729 35.168 24.9466 35.0667C25.0479 35.0529 25.1515 35.0506 25.2506 35.0437C25.4394 35.0321 25.6167 35.0252 25.7848 34.9654C25.8746 34.9308 25.9621 34.8848 26.0542 34.8341C26.2292 34.7351 26.4135 34.6384 26.6253 34.6407C27.0606 34.6522 27.3507 35.1196 27.3461 35.548" fill="#72BF47"/>
<path d="M17.4458 22.8755C17.1165 23.313 16.4971 23.3038 16.025 23.1518C15.9053 23.1127 15.7832 23.0689 15.6658 23.0229C15.3779 22.9123 15.1085 22.8064 14.8322 22.8156C14.5627 22.8271 14.3048 22.9446 14.0331 23.0735L13.9364 23.1173C13.591 23.2739 13.2202 23.4074 12.831 23.3361C12.4971 23.2739 12.2784 23.1633 12.1425 23.0367C11.9813 22.887 11.9306 22.7189 11.9237 22.5715C11.8915 21.6297 13.8189 20.2756 14.4061 20.1191C15.6335 19.799 17.059 20.5266 17.5126 21.7103C17.6876 22.1616 17.6646 22.5899 17.4481 22.8732" fill="#72BF47"/>
<path d="M12.0145 35.8499C12.003 36.1469 11.874 36.4025 11.6645 36.5361C11.5148 36.6328 11.3398 36.6558 11.174 36.6558C11.0727 36.6558 10.9782 36.6466 10.8953 36.6397C10.6397 36.6144 10.322 36.5845 10.0871 36.3887C9.96502 36.2874 9.88212 36.1515 9.81304 36.041L9.7831 35.9926C9.52519 35.5735 9.08996 34.8735 9.24885 34.3577C9.30872 34.1665 9.43998 34.0376 9.6196 33.9961C9.84527 33.9455 10.1101 34.0376 10.2966 34.2356C10.3841 34.3277 10.444 34.4336 10.5016 34.5396L10.5499 34.6225C10.672 34.8274 10.8769 35.0876 11.1694 35.1728C11.2362 35.1936 11.3029 35.2051 11.3789 35.2166C11.5678 35.2511 11.7865 35.2857 11.9132 35.463C11.9823 35.562 12.0145 35.6864 12.0099 35.8522" fill="#72BF47"/>
<path d="M60.0029 22.8047H66.7812V31.2695C64.9408 31.8997 62.9176 32.2148 60.7119 32.2148C58.2913 32.2148 56.4186 31.513 55.0938 30.1094C53.776 28.7057 53.1172 26.7041 53.1172 24.1045C53.1172 21.5693 53.8405 19.5964 55.2871 18.1855C56.7337 16.7747 58.7604 16.0693 61.3672 16.0693C62.3555 16.0693 63.2865 16.1624 64.1602 16.3486C65.041 16.5348 65.8073 16.7712 66.459 17.0576L65.1162 20.3877C63.9847 19.8291 62.7422 19.5498 61.3887 19.5498C60.1497 19.5498 59.1901 19.9544 58.5098 20.7637C57.8366 21.5658 57.5 22.7152 57.5 24.2119C57.5 25.68 57.8044 26.8008 58.4131 27.5742C59.029 28.3405 59.9134 28.7236 61.0664 28.7236C61.6966 28.7236 62.2767 28.6628 62.8066 28.541V26.0811H60.0029V22.8047ZM77.083 19.6143C77.4482 19.6143 77.7956 19.6429 78.125 19.7002L78.3613 19.7432L77.9854 23.707C77.6416 23.6211 77.1654 23.5781 76.5566 23.5781C75.64 23.5781 74.974 23.7894 74.5586 24.2119C74.1432 24.6273 73.9355 25.2288 73.9355 26.0166V32H69.7354V19.8291H72.8613L73.5166 21.7734H73.7207C74.0716 21.1289 74.5586 20.6097 75.1816 20.2158C75.8118 19.8148 76.4456 19.6143 77.083 19.6143ZM85.9453 32.2148C83.9186 32.2148 82.3431 31.6777 81.2188 30.6035C80.1016 29.5221 79.543 27.986 79.543 25.9951C79.543 23.9398 80.0622 22.3643 81.1006 21.2686C82.139 20.1657 83.6214 19.6143 85.5479 19.6143C87.3812 19.6143 88.7956 20.0941 89.791 21.0537C90.7936 22.0062 91.2949 23.3812 91.2949 25.1787V27.0479H83.7861C83.8148 27.7282 84.0618 28.2617 84.5273 28.6484C85 29.0352 85.641 29.2285 86.4502 29.2285C87.1878 29.2285 87.8646 29.1605 88.4805 29.0244C89.1035 28.8812 89.7767 28.6413 90.5 28.3047V31.3232C89.8411 31.6598 89.1608 31.8926 88.459 32.0215C87.7572 32.1504 86.9193 32.2148 85.9453 32.2148ZM85.6982 22.4717C85.2041 22.4717 84.7887 22.6292 84.4521 22.9443C84.1227 23.2523 83.9294 23.7393 83.8721 24.4053H87.4814C87.4671 23.818 87.2988 23.349 86.9766 22.998C86.6615 22.6471 86.2354 22.4717 85.6982 22.4717ZM99.5449 32.2148C97.5182 32.2148 95.9427 31.6777 94.8184 30.6035C93.7012 29.5221 93.1426 27.986 93.1426 25.9951C93.1426 23.9398 93.6618 22.3643 94.7002 21.2686C95.7386 20.1657 97.221 19.6143 99.1475 19.6143C100.981 19.6143 102.395 20.0941 103.391 21.0537C104.393 22.0062 104.895 23.3812 104.895 25.1787V27.0479H97.3857C97.4144 27.7282 97.6615 28.2617 98.127 28.6484C98.5996 29.0352 99.2406 29.2285 100.05 29.2285C100.787 29.2285 101.464 29.1605 102.08 29.0244C102.703 28.8812 103.376 28.6413 104.1 28.3047V31.3232C103.441 31.6598 102.76 31.8926 102.059 32.0215C101.357 32.1504 100.519 32.2148 99.5449 32.2148ZM99.2979 22.4717C98.8037 22.4717 98.3883 22.6292 98.0518 22.9443C97.7223 23.2523 97.529 23.7393 97.4717 24.4053H101.081C101.067 23.818 100.898 23.349 100.576 22.998C100.261 22.6471 99.835 22.4717 99.2979 22.4717ZM114.949 32V25.3613C114.949 24.5521 114.831 23.9434 114.595 23.5352C114.366 23.1198 113.993 22.9121 113.478 22.9121C112.769 22.9121 112.257 23.195 111.941 23.7607C111.626 24.3265 111.469 25.2969 111.469 26.6719V32H107.269V19.8291H110.438L110.964 21.333H111.211C111.569 20.7601 112.063 20.3304 112.693 20.0439C113.331 19.7575 114.061 19.6143 114.885 19.6143C116.231 19.6143 117.277 20.0046 118.021 20.7852C118.773 21.5658 119.149 22.665 119.149 24.083V32H114.949ZM129.419 32L124.864 18.8838H124.778C124.9 20.8317 124.961 22.6579 124.961 24.3623V32H122.63V16.2949H126.25L130.611 28.7881H130.676L135.166 16.2949H138.797V32H136.326V24.2334C136.326 23.4528 136.344 22.4359 136.38 21.1826C136.423 19.9294 136.459 19.1702 136.487 18.9053H136.401L131.686 32H129.419ZM153.202 26.0381C153.202 27.9788 152.704 29.4935 151.709 30.582C150.714 31.6706 149.328 32.2148 147.552 32.2148C146.442 32.2148 145.461 31.9642 144.608 31.4629C143.756 30.9616 143.101 30.2419 142.643 29.3037C142.184 28.3656 141.955 27.277 141.955 26.0381C141.955 24.1117 142.449 22.6077 143.438 21.5264C144.426 20.445 145.819 19.9043 147.616 19.9043C149.335 19.9043 150.696 20.4593 151.698 21.5693C152.701 22.6722 153.202 24.1618 153.202 26.0381ZM144.555 26.0381C144.555 28.7809 145.568 30.1523 147.595 30.1523C149.6 30.1523 150.603 28.7809 150.603 26.0381C150.603 23.3239 149.593 21.9668 147.573 21.9668C146.513 21.9668 145.743 22.3177 145.264 23.0195C144.791 23.7214 144.555 24.7275 144.555 26.0381ZM158.82 32L154.309 20.1191H156.973L159.39 27.0264C159.805 28.1865 160.056 29.1247 160.142 29.8408H160.228C160.292 29.3252 160.543 28.387 160.979 27.0264L163.396 20.1191H166.082L161.549 32H158.82ZM173.075 32.2148C171.228 32.2148 169.781 31.6777 168.735 30.6035C167.697 29.5221 167.178 28.0361 167.178 26.1455C167.178 24.2048 167.661 22.6794 168.628 21.5693C169.595 20.4593 170.923 19.9043 172.613 19.9043C174.182 19.9043 175.421 20.3805 176.33 21.333C177.24 22.2855 177.694 23.596 177.694 25.2646V26.6289H169.777C169.813 27.7819 170.125 28.6699 170.712 29.293C171.299 29.9089 172.126 30.2168 173.193 30.2168C173.895 30.2168 174.547 30.1523 175.148 30.0234C175.757 29.8874 176.409 29.6654 177.104 29.3574V31.4092C176.488 31.7028 175.865 31.9105 175.234 32.0322C174.604 32.154 173.884 32.2148 173.075 32.2148ZM172.613 21.8164C171.811 21.8164 171.167 22.0706 170.68 22.5791C170.2 23.0876 169.913 23.8288 169.82 24.8027H175.213C175.199 23.8216 174.962 23.0804 174.504 22.5791C174.046 22.0706 173.415 21.8164 172.613 21.8164ZM190.574 32H188.039V24.6738C188.039 23.7643 187.867 23.0876 187.523 22.6436C187.18 22.1924 186.643 21.9668 185.912 21.9668C184.938 21.9668 184.222 22.2855 183.764 22.9229C183.312 23.5531 183.087 24.6058 183.087 26.0811V32H180.562V20.1191H182.539L182.894 21.6768H183.022C183.352 21.111 183.828 20.6742 184.451 20.3662C185.081 20.0583 185.772 19.9043 186.524 19.9043C188.351 19.9043 189.561 20.5273 190.155 21.7734H190.327C190.678 21.1862 191.172 20.7279 191.81 20.3984C192.447 20.069 193.177 19.9043 194.001 19.9043C195.419 19.9043 196.45 20.2624 197.095 20.9785C197.746 21.6947 198.072 22.7868 198.072 24.2549V32H195.548V24.6738C195.548 23.7643 195.372 23.0876 195.021 22.6436C194.678 22.1924 194.141 21.9668 193.41 21.9668C192.429 21.9668 191.709 22.2747 191.251 22.8906C190.8 23.4993 190.574 24.4375 190.574 25.7051V32ZM206.784 32.2148C204.937 32.2148 203.49 31.6777 202.444 30.6035C201.406 29.5221 200.887 28.0361 200.887 26.1455C200.887 24.2048 201.37 22.6794 202.337 21.5693C203.304 20.4593 204.632 19.9043 206.322 19.9043C207.891 19.9043 209.13 20.3805 210.039 21.333C210.949 22.2855 211.403 23.596 211.403 25.2646V26.6289H203.486C203.522 27.7819 203.834 28.6699 204.421 29.293C205.008 29.9089 205.835 30.2168 206.902 30.2168C207.604 30.2168 208.256 30.1523 208.857 30.0234C209.466 29.8874 210.118 29.6654 210.812 29.3574V31.4092C210.197 31.7028 209.574 31.9105 208.943 32.0322C208.313 32.154 207.593 32.2148 206.784 32.2148ZM206.322 21.8164C205.52 21.8164 204.876 22.0706 204.389 22.5791C203.909 23.0876 203.622 23.8288 203.529 24.8027H208.922C208.908 23.8216 208.671 23.0804 208.213 22.5791C207.755 22.0706 207.124 21.8164 206.322 21.8164ZM224.724 32H222.188V24.6953C222.188 23.7786 222.002 23.0947 221.63 22.6436C221.265 22.1924 220.681 21.9668 219.879 21.9668C218.812 21.9668 218.031 22.2819 217.537 22.9121C217.043 23.5423 216.796 24.5986 216.796 26.0811V32H214.271V20.1191H216.248L216.603 21.6768H216.731C217.09 21.111 217.598 20.6742 218.257 20.3662C218.916 20.0583 219.646 19.9043 220.448 19.9043C223.299 19.9043 224.724 21.3545 224.724 24.2549V32ZM232.662 30.1738C233.278 30.1738 233.894 30.0771 234.51 29.8838V31.7852C234.23 31.9069 233.869 32.0072 233.425 32.0859C232.988 32.1719 232.533 32.2148 232.061 32.2148C229.669 32.2148 228.473 30.9544 228.473 28.4336V22.0312H226.851V20.9141L228.591 19.9902L229.45 17.4766H231.008V20.1191H234.392V22.0312H231.008V28.3906C231.008 28.9993 231.158 29.4505 231.459 29.7441C231.767 30.0306 232.168 30.1738 232.662 30.1738Z" fill="#202124"/>
</svg>
